<svg width="24" height="25" viewBox="0 0 24 25" fill="none" xmlns="http://www.w3.org/2000/svg">
<path d="M19 11.5H9L12.29 8.20999C12.3837 8.11703 12.4581 8.00643 12.5089 7.88457C12.5597 7.76271 12.5858 7.632 12.5858 7.49999C12.5858 7.36798 12.5597 7.23727 12.5089 7.11541C12.4581 6.99355 12.3837 6.88295 12.29 6.78999C12.1026 6.60374 11.8492 6.4992 11.585 6.4992C11.3208 6.4992 11.0674 6.60374 10.88 6.78999L6.59 11.09C6.21441 11.4633 6.00223 11.9704 6 12.5C6.00487 13.0261 6.21684 13.5291 6.59 13.9L10.88 18.2C10.9732 18.2926 11.0838 18.3659 11.2054 18.4157C11.3269 18.4656 11.4571 18.491 11.5885 18.4905C11.7199 18.4901 11.8499 18.4637 11.9712 18.413C12.0924 18.3623 12.2024 18.2882 12.295 18.195C12.3876 18.1017 12.4609 17.9912 12.5107 17.8696C12.5606 17.748 12.586 17.6178 12.5856 17.4864C12.5851 17.355 12.5588 17.225 12.508 17.1038C12.4573 16.9826 12.3832 16.8726 12.29 16.78L9 13.5H19C19.2652 13.5 19.5196 13.3946 19.7071 13.2071C19.8946 13.0196 20 12.7652 20 12.5C20 12.2348 19.8946 11.9804 19.7071 11.7929C19.5196 11.6053 19.2652 11.5 19 11.5Z" fill="#262626"/>
</svg>
